<?xml version="1.0" standalone="no"?>
<svg xmlns:xlink="http://www.w3.org/1999/xlink" id="wave" style="transform:rotate(0deg); transition: 0.3s" viewBox="0 0 1440 130" version="1.1" xmlns="http://www.w3.org/2000/svg"><defs><linearGradient id="sw-gradient-0" x1="0" x2="0" y1="1" y2="0"><stop stop-color="rgba(112, 14, 144, 1)" offset="0%"/><stop stop-color="rgba(229.045, 165.216, 24.12, 1)" offset="100%"/></linearGradient></defs><path style="transform:translate(0, 0px); opacity:1" fill="url(#sw-gradient-0)" d="M0,26L80,41.2C160,56,320,87,480,82.3C640,78,800,39,960,23.8C1120,9,1280,17,1440,30.3C1600,43,1760,61,1920,73.7C2080,87,2240,95,2400,91C2560,87,2720,69,2880,56.3C3040,43,3200,35,3360,32.5C3520,30,3680,35,3840,47.7C4000,61,4160,82,4320,82.3C4480,82,4640,61,4800,58.5C4960,56,5120,74,5280,82.3C5440,91,5600,91,5760,91C5920,91,6080,91,6240,86.7C6400,82,6560,74,6720,69.3C6880,65,7040,65,7200,69.3C7360,74,7520,82,7680,80.2C7840,78,8000,65,8160,56.3C8320,48,8480,43,8640,54.2C8800,65,8960,91,9120,88.8C9280,87,9440,56,9600,43.3C9760,30,9920,35,10080,34.7C10240,35,10400,30,10560,26C10720,22,10880,17,11040,28.2C11200,39,11360,65,11440,78L11520,91L11520,130L11440,130C11360,130,11200,130,11040,130C10880,130,10720,130,10560,130C10400,130,10240,130,10080,130C9920,130,9760,130,9600,130C9440,130,9280,130,9120,130C8960,130,8800,130,8640,130C8480,130,8320,130,8160,130C8000,130,7840,130,7680,130C7520,130,7360,130,7200,130C7040,130,6880,130,6720,130C6560,130,6400,130,6240,130C6080,130,5920,130,5760,130C5600,130,5440,130,5280,130C5120,130,4960,130,4800,130C4640,130,4480,130,4320,130C4160,130,4000,130,3840,130C3680,130,3520,130,3360,130C3200,130,3040,130,2880,130C2720,130,2560,130,2400,130C2240,130,2080,130,1920,130C1760,130,1600,130,1440,130C1280,130,1120,130,960,130C800,130,640,130,480,130C320,130,160,130,80,130L0,130Z"/></svg>